# xmcd
#
# Track frame offsets:
#	150
#	40222
#	71575
#	106472
#	130625
#	148248
#	174975
#	212569
#	243641
#	262675
#	284802
#	305770
#	319044
#
# Disc length: 4419 seconds
#
# Revision: 0
# Processed by: cddbd v1.4PL0 Copyright (c) Steve Scherf et al.
# Submitted via: EasyCDDAExtractor 4.6.0.1
#
DISCID=c511410d
DTITLE=CAFE PARADISO - ALL STAR CHILL OUT #1
DYEAR=1900
DGENRE=
TTITLE0=GABRIEL LE MAR - UNLIMITED LOVE
TTITLE1=DEEP DIVE CORP. - ENJOY
TTITLE2=COCO STEEL and LOVEBOMB - CLEAR SKIES
TTITLE3=VOLUME ONE - MONO and MONO
TTITLE4=JOSE PADILLA - ONE DAY IN PARADISE
TTITLE5=NITIN SAWHNEY - HOMELANDS
TTITLE6=CRESCENDO - CAIRO
TTITLE7=BOOZOO BAJOU - UNDER MY SENSI
TTITLE8=THE GENTLE PEOPLE - GROOVIN WITH YOU
TTITLE9=CHICANE - AUTUMN TACTICS
TTITLE10=SAINT ETIENNE - WE'RE IN THE CITY
TTITLE11=APHEX TWIN - IZ US
TTITLE12=THE DURUTTI COLUMN - SKETCH FOR SUMMER
EXTD=
EXTT0=
EXTT1=
EXTT2=
EXTT3=
EXTT4=
EXTT5=
EXTT6=
EXTT7=
EXTT8=
EXTT9=
EXTT10=
EXTT11=
EXTT12=
PLAYORDER=
